HIERARCHY
ROOT Hips
{
  OFFSET 0 0 0
  CHANNELS 6 Xposition Yposition Zposition Zrotation Yrotation Xrotation
  JOINT LeftThigh
  {
    OFFSET 8.409438 0 -5.917753
    CHANNELS 3 Zrotation Yrotation Xrotation
    JOINT LeftLeg
    {
      OFFSET 0 0 -42.358652
      CHANNELS 3 Zrotation Yrotation Xrotation
      JOINT LeftFoot
      {
        OFFSET 0 0 -39.357303
        CHANNELS 3 Zrotation Yrotation Xrotation
      }
    }
  }
  JOINT RightThigh
  {
    OFFSET -8.409438 0 -5.917753
    CHANNELS 3 Zrotation Yrotation Xrotation
    JOINT RightLeg
    {
      OFFSET 0 0 -42.358652
      CHANNELS 3 Zrotation Yrotation Xrotation
      JOINT RightFoot
      {
        OFFSET 0 0 -39.357303
        CHANNELS 3 Zrotation Yrotation Xrotation
      }
    }
  }
  JOINT SpineLow
  {
    OFFSET 0 0 4.719101
    CHANNELS 3 Zrotation Yrotation Xrotation
    JOINT SpineMid
    {
      OFFSET 0 0 12.899191
      CHANNELS 3 Zrotation Yrotation Xrotation
      JOINT Chest
      {
        OFFSET 0 0 12.899191
        CHANNELS 3 Zrotation Yrotation Xrotation
        JOINT LeftShoulder
        {
          OFFSET 7.550562 1.41573 9.438202
          CHANNELS 3 Zrotation Yrotation Xrotation
          JOINT LeftArm
          {
            OFFSET 9.155056 0 4.247191
            CHANNELS 3 Zrotation Yrotation Xrotation
            JOINT LeftForearm
            {
              OFFSET 0 0 25.771955
              CHANNELS 3 Zrotation Yrotation Xrotation
              JOINT LeftHand
              {
                OFFSET 0 0 25.197169
                CHANNELS 3 Zrotation Yrotation Xrotation
              }
            }
          }
        }
        JOINT RightShoulder
        {
          OFFSET -7.550562 1.41573 9.438202
          CHANNELS 3 Zrotation Yrotation Xrotation
          JOINT RightArm
          {
            OFFSET -9.155056 0 4.247191
            CHANNELS 3 Zrotation Yrotation Xrotation
            JOINT RightForearm
            {
              OFFSET 0 0 -25.771955
              CHANNELS 3 Zrotation Yrotation Xrotation
              JOINT RightHand
              {
                OFFSET 0 0 -25.197169
                CHANNELS 3 Zrotation Yrotation Xrotation
              }
            }
          }
        }
        JOINT Neck
        {
          OFFSET 0 0 15.101124
          CHANNELS 3 Zrotation Yrotation Xrotation
          JOINT Head
          {
            OFFSET 0 0 11.325843
            CHANNELS 3 Zrotation Yrotation Xrotation
            End Site
            {
              OFFSET 0 0 14.157303
            }
          }
        }
      }
    }
  }
}
MOTION
Frames: 16
Frame Time: 0.0
0.0  93.25843  0.0  -1.904307  30.848154  -81.514774  9.216847  -15.151087  16.777894  -0.276785  0.725308  7.653966  -5.963069  -2.194609  -5.794975  -19.559767  -14.978532  -46.54587  -1.571345  19.936081  29.092544  2.534114  0.280943  3.749196  -1.122891  -0.531865  -0.79757  -3.051859  -1.490288  -2.15518  -3.051859  -1.490287  -2.155179  -11.528517  21.490133  9.27915  118.026168  55.438872  -158.087437  -13.024338  -20.250087  82.413582  77.612056  -13.474394  -5.600342  5.587232  -13.53712  13.35785  39.102313  78.744789  -13.084643  -45.069905  5.451156  -65.873024  72.746687  -6.218825  -39.676916  -11.578853  1.326345  2.084516  -8.688394  0.955679  1.589131  
0.0  93.25843  0.0  -2.270799  29.790367  -81.734344  9.860929  -15.089048  17.195283  -0.041359  0.372899  6.964243  -5.522855  -1.938047  -5.539907  -18.562557  -15.284493  -46.443611  -1.595181  20.103816  29.190102  2.656263  0.301858  3.690695  -1.192069  -0.554682  -0.882156  -3.238222  -1.558991  -2.383679  -3.238222  -1.558991  -2.383679  -10.011961  21.485954  9.923414  118.477558  54.928871  -157.873413  -12.888203  -19.84276  82.082351  77.296255  -13.811721  -5.805477  6.669233  -13.833191  13.840598  39.680875  78.675291  -12.441174  -44.926196  5.498334  -65.713093  72.656842  -6.465438  -39.710717  -10.815905  1.344385  2.394244  -8.11697  0.966288  1.820077  
0.0  93.25843  0.0  -2.34613  29.639934  -81.638833  9.538633  -14.910702  17.60608  0.219908  0.162682  6.258  -5.377222  -1.909961  -5.50805  -18.431764  -15.564307  -46.527946  -1.565858  20.283513  29.349231  2.598756  0.323822  3.592693  -1.207812  -0.571316  -0.914689  -3.279874  -1.606607  -2.47141  -3.279874  -1.606607  -2.471409  -9.89608  21.495176  10.027144  119.070303  54.344073  -157.480968  -12.82454  -19.132639  81.789403  77.063675  -14.334465  -5.898502  6.734708  -13.926263  13.812071  40.684789  78.649343  -11.381672  -44.835666  5.557563  -65.64831  72.706707  -6.725926  -39.396017  -10.674357  1.313006  2.37111  -8.010653  0.943693  1.801846  
0.0  93.25843  0.0  -2.738411  29.132649  -81.833719  9.465202  -14.966454  17.998489  0.608985  -0.048188  5.693388  -5.093177  -1.790798  -5.356753  -18.064365  -16.066709  -46.348743  -1.500891  20.481884  29.529554  2.732883  0.339916  3.530794  -1.381477  -0.604966  -0.984142  -3.75156  -1.70889  -2.655032  -3.751559  -1.70889  -2.655032  -8.339294  21.388059  10.625742  119.884256  53.617023  -156.969158  -13.084359  -18.500121  81.185718  76.846648  -15.219296  -5.594813  7.946254  -14.174702  14.22664  42.157224  78.613368  -9.927589  -44.80524  5.766597  -65.666991  72.745381  -7.001326  -38.997392  -9.920069  1.263442  2.52523  -7.44512  0.90689  1.914957  
0.0  93.25843  0.0  -2.675914  28.459854  -82.417003  9.298863  -14.717193  19.187254  1.020349  -0.203715  5.117799  -4.972142  -1.787987  -5.334891  -17.716423  -16.022276  -45.636698  -1.452815  20.704606  29.743114  2.726912  0.400309  3.424495  -1.336193  -0.588828  -0.878687  -3.631099  -1.657238  -2.368887  -3.631099  -1.657237  -2.368887  -8.143535  21.338577  10.591609  120.528986  52.737703  -156.501809  -12.945352  -18.000412  81.025233  77.006118  -15.584771  -5.748798  8.126017  -14.130744  14.091756  43.185678  78.643736  -8.810004  -44.788457  6.09219  -65.752107  72.785087  -7.323885  -38.504768  -9.750893  1.202735  2.37279  -7.3177  0.864466  1.799265  
0.0  93.25843  0.0  -2.828098  26.536429  -83.460062  10.269349  -14.560873  20.554842  1.405851  -0.418839  4.679339  -4.794011  -1.707215  -5.206084  -17.235093  -16.007942  -44.965975  -0.639095  20.47475  30.53994  2.864689  0.500775  3.386151  -1.116325  -0.580279  -0.724859  -3.034212  -1.619042  -1.954418  -3.034212  -1.619042  -1.954418  -8.004912  21.276047  10.522109  121.059928  51.737196  -156.061557  -12.773653  -17.987692  80.724685  77.183219  -15.78774  -5.870322  7.034941  -13.825566  13.466832  48.440522  78.102611  -4.70266  -44.705871  6.413745  -65.89317  72.770597  -7.698618  -37.983879  -10.225119  1.185628  1.990341  -7.672522  0.856212  1.513047  
0.0  93.25843  0.0  -2.858701  26.198568  -83.544344  10.103383  -14.402388  21.135975  1.785999  -0.601166  4.211005  -4.824478  -1.731378  -5.168178  -16.987569  -16.202702  -44.84889  -0.502541  20.664834  31.013807  2.848454  0.573246  3.286954  -1.098253  -0.587232  -0.71132  -2.984953  -1.636901  -1.917553  -2.984953  -1.636901  -1.917553  -7.980366  21.216542  10.436675  121.673892  50.662307  -155.686492  -12.345316  -18.277758  80.64892  77.348339  -15.875439  -5.883459  7.086653  -13.8268  13.283018  49.289983  78.158168  -3.712959  -44.546055  6.660201  -66.052578  72.720279  -8.092489  -37.416753  -10.156112  1.158059  1.896191  -7.620503  0.837314  1.441817  
0.0  93.25843  0.0  -2.898166  25.672078  -83.587949  10.174763  -14.316546  21.548082  2.135099  -0.741359  3.925666  -4.887696  -1.745334  -5.120891  -16.448491  -16.306912  -44.872222  -0.371787  20.802435  31.641003  2.784368  0.633186  3.145186  -1.057942  -0.596094  -0.720506  -2.874278  -1.660358  -1.943297  -2.874278  -1.660357  -1.943297  -8.067811  21.222594  10.420526  122.503189  49.635496  -155.297255  -11.823208  -18.791359  80.58727  77.469756  -15.84485  -5.845383  6.847918  -13.790224  13.012316  51.069555  78.078993  -2.116509  -44.294575  6.851351  -66.183878  72.694816  -8.449841  -36.794049  -10.689505  1.218987  1.649025  -8.020183  0.885723  1.258506  
0.0  93.25843  0.0  -2.957943  25.370535  -83.440587  10.418922  -14.377089  21.842881  2.284182  -0.902372  3.586693  -5.087783  -1.764321  -5.06361  -16.000491  -16.403823  -45.128326  -0.309821  20.888931  32.310338  2.709526  0.635464  3.046676  -1.050368  -0.61561  -0.762382  -2.851928  -1.715263  -2.057129  -2.851928  -1.715263  -2.057129  -8.010438  21.199326  10.507628  123.308724  48.713712  -154.920609  -11.313165  -19.278814  80.584524  77.470322  -15.781713  -5.855931  6.923436  -13.83841  12.8179  52.026192  78.185483  -1.135963  -43.996679  7.190435  -66.222938  72.78671  -8.781866  -36.052013  -10.579079  1.296327  1.712812  -7.937676  0.942937  1.307465  
0.0  93.25843  0.0  -3.098909  24.875337  -83.367885  11.014303  -14.63719  22.190611  2.310108  -1.076431  3.311411  -5.409646  -1.79979  -5.099984  -15.335225  -16.474338  -45.30135  -0.404709  20.990248  32.884069  2.505209  0.70651  2.954056  -1.03029  -0.645322  -0.798766  -2.795158  -1.797365  -2.155887  -2.795158  -1.797365  -2.155887  -8.897458  21.178112  10.164742  125.229462  47.740861  -154.490436  -10.970999  -19.472454  80.68344  77.424271  -15.748042  -5.935367  6.648542  -13.836059  12.467513  54.293561  78.187427  0.662815  -43.701154  7.857408  -66.120743  72.992125  -9.012092  -35.25158  -10.444702  1.387296  1.781018  -7.837264  1.010391  1.359886  
0.0  93.25843  0.0  -3.238188  24.578196  -83.348981  11.40312  -15.075446  22.586093  2.292242  -1.085659  3.159312  -5.666047  -1.807732  -5.083154  -14.933789  -16.607231  -45.214564  -0.496308  21.107106  33.258287  2.42236  0.775604  2.944455  -1.042425  -0.691868  -0.821881  -2.826206  -1.925925  -2.216802  -2.826206  -1.925925  -2.216802  -8.795134  21.084577  10.115083  126.199678  46.831814  -154.192923  -10.79959  -19.29821  80.931501  77.506816  -15.712948  -6.086372  6.843429  -13.885603  12.226912  55.522554  78.500983  1.843411  -43.426088  9.019502  -65.883165  73.235086  -9.17613  -34.450745  -10.226939  1.466326  1.818897  -7.674229  1.069671  1.389105  
0.0  93.25843  0.0  -3.50349  24.005773  -83.508767  11.82396  -15.657358  23.036669  2.363528  -0.960649  3.249139  -5.835751  -1.899056  -5.011592  -14.422  -16.89781  -44.670707  -0.612215  21.298413  33.319849  2.437908  0.84303  2.883569  -1.034297  -0.753548  -0.829633  -2.801774  -2.094523  -2.235698  -2.801774  -2.094523  -2.235698  -8.621041  21.005906  10.048983  127.212883  46.021556  -154.013621  -10.699048  -18.880515  81.296719  77.958422  -15.568468  -6.333787  7.125326  -13.92794  12.028113  56.575287  78.8776  2.826976  -43.089308  10.473536  -65.564619  73.580096  -9.300484  -33.745094  -9.920507  1.515726  1.843551  -7.444598  1.107224  1.407635  
0.0  93.25843  0.0  -3.760204  23.640149  -83.571791  11.820167  -16.216894  23.275168  2.536236  -0.810771  3.691219  -5.888671  -1.993633  -4.92161  -14.101146  -17.388306  -43.854599  -0.744401  21.607545  32.950948  2.582765  0.894156  2.819619  -1.045421  -0.830913  -0.860954  -2.828609  -2.307624  -2.317767  -2.828609  -2.307624  -2.317767  -8.458474  21.057887  10.0881  128.213098  45.610312  -153.836946  -10.520275  -18.412256  81.71186  78.804033  -15.129571  -6.551369  7.359686  -13.901789  11.876268  57.021216  79.309663  3.288373  -42.601746  11.948571  -65.254228  74.010454  -9.400568  -33.19594  -9.647455  1.598635  1.847587  -7.240032  1.170168  1.411261  
0.0  93.25843  0.0  -4.054146  23.049076  -83.666502  11.912786  -16.763082  23.340507  2.703056  -0.591597  4.563526  -5.796278  -2.168955  -4.795649  -13.711836  -17.993366  -42.771202  -0.63065  21.783767  32.453689  2.618478  0.945173  2.663928  -1.031233  -0.904736  -0.896285  -2.786019  -2.510327  -2.411872  -2.786019  -2.510327  -2.411873  -8.325006  21.103941  10.170848  129.338873  45.632039  -153.615455  -10.124081  -18.264574  82.139422  79.833845  -14.265013  -6.537187  7.634765  -13.905587  11.738612  56.882507  79.734751  3.219151  -41.930699  13.276308  -65.009917  74.456908  -9.47744  -32.71827  -9.350466  1.652411  1.877421  -7.017517  1.210932  1.433657  
0.0  93.25843  0.0  -4.366489  22.283221  -83.780157  12.053783  -17.274911  23.18359  3.037951  -0.384401  6.040712  -5.7681  -2.386992  -4.676145  -13.282923  -18.6654  -41.595587  -0.325987  21.828915  31.976013  2.760201  1.03239  2.533765  -1.005719  -0.980176  -0.916295  -2.712835  -2.716358  -2.464605  -2.712835  -2.716358  -2.464605  -8.145317  21.061978  10.050007  130.492376  45.941594  -153.380951  -9.476973  -18.886614  82.572785  80.678191  -12.925899  -6.054597  8.030458  -13.859027  11.490372  56.396766  80.14998  2.843063  -41.128158  14.556343  -64.816445  75.02991  -9.367238  -32.167507  -9.017693  1.680556  1.892872  -6.768066  1.232818  1.444731  
0.0  93.25843  0.0  -4.679404  21.336054  -83.971091  12.189792  -17.726744  22.860129  3.481838  -0.250539  8.107091  -5.679967  -2.56528  -4.514146  -12.988632  -19.266255  -40.042501  0.132071  21.537661  31.32362  2.824369  1.202818  2.401513  -0.964873  -1.043661  -0.908146  -2.599273  -2.888007  -2.441647  -2.599273  -2.888008  -2.441647  -8.029419  20.855008  9.650158  131.730055  46.494071  -153.177905  -8.595896  -20.434136  82.987925  81.253017  -11.181621  -4.989522  8.528544  -13.819087  11.143509  55.75762  80.587103  2.336357  -40.300992  16.002741  -64.649595  75.476121  -8.973084  -31.707774  -8.664228  1.669879  1.921239  -6.503036  1.225478  1.464858  
